<svg xmlns="http://www.w3.org/2000/svg" viewBox="7715 222 30 30">
  <defs>
    <style>
      .cls-1 {
        fill: #fff;
      }
    </style>
  </defs>
  <path id="Path_14" data-name="Path 14" class="cls-1" d="M17.485,2.5A15,15,0,1,0,32.5,17.5,14.993,14.993,0,0,0,17.485,2.5Zm10.4,9H23.455a23.473,23.473,0,0,0-2.07-5.34A12.045,12.045,0,0,1,27.88,11.5ZM17.5,5.56a21.13,21.13,0,0,1,2.865,5.94h-5.73A21.13,21.13,0,0,1,17.5,5.56ZM5.89,20.5a11.733,11.733,0,0,1,0-6h5.07a24.773,24.773,0,0,0-.21,3,24.773,24.773,0,0,0,.21,3Zm1.23,3h4.425a23.474,23.474,0,0,0,2.07,5.34A11.98,11.98,0,0,1,7.12,23.5Zm4.425-12H7.12a11.98,11.98,0,0,1,6.495-5.34,23.474,23.474,0,0,0-2.07,5.34ZM17.5,29.44a21.13,21.13,0,0,1-2.865-5.94h5.73A21.13,21.13,0,0,1,17.5,29.44Zm3.51-8.94H13.99a22.069,22.069,0,0,1-.24-3,21.878,21.878,0,0,1,.24-3h7.02a21.877,21.877,0,0,1,.24,3A22.069,22.069,0,0,1,21.01,20.5Zm.375,8.34a23.473,23.473,0,0,0,2.07-5.34H27.88A12.044,12.044,0,0,1,21.385,28.84ZM24.04,20.5a24.773,24.773,0,0,0,.21-3,24.773,24.773,0,0,0-.21-3h5.07a11.733,11.733,0,0,1,0,6Z" transform="translate(7712.5 219.5)"/>
</svg>
