<?xml version="1.0" encoding="UTF-8"?>
<!DOCTYPE svg PUBLIC "-//W3C//DTD SVG 1.1//EN" "http://www.w3.org/Graphics/SVG/1.1/DTD/svg11.dtd">

<svg xmlns="http://www.w3.org/2000/svg" xml:space="preserve"  version="1.1" viewBox="0 0 4335 4335" xmlns:xlink="http://www.w3.org/1999/xlink">
 <defs>
  <style type="text/css">
   <![CDATA[
    .m-fil0 {fill:#E8CD88}
    .m-fil3 {fill:#9EC9B6}
    .m-fil7 {fill:#493928}
    .m-fil2 {fill:#7FBDAC}
    .m-fil1 {fill:#569D87}
    .m-fil4 {fill:#FF6600}
    .m-fil5 {fill:#FFCC00}
    .m-fil6 {fill:#FFDC4F}
   ]]>
  </style>
 </defs>
   <path class="m-fil0" d="M2167 3993c-1006,0 -1825,-819 -1825,-1826 0,-1006 819,-1825 1825,-1825 1007,0 1826,819 1826,1825 0,1007 -819,1826 -1826,1826z"/>
   <path class="m-fil1" d="M3136 3710l-1937 0c290,181 619,283 968,283 350,0 679,-102 969,-283z"/>
   <path class="m-fil2" d="M3581 3338l-2827 0c133,146 283,271 445,372l1937 0c162,-101 312,-226 445,-372z"/>
   <path class="m-fil3" d="M2475 3008c-94,-16 -200,-24 -308,-24 -107,0 -214,8 -307,24l-1215 202c35,45 71,87 109,128l2827 0c38,-41 74,-83 109,-128l-1215 -202z"/>
   <path class="m-fil0" d="M2167 414c-967,0 -1753,786 -1753,1753 0,968 786,1754 1753,1754 967,0 1754,-786 1754,-1754 0,-967 -787,-1753 -1754,-1753zm0 3921c-578,0 -1123,-225 -1532,-635 -410,-409 -635,-954 -635,-1533 0,-578 225,-1123 635,-1532 409,-410 954,-635 1532,-635 579,0 1124,225 1533,635 409,409 635,954 635,1532 0,579 -226,1124 -635,1533 -409,410 -954,635 -1533,635z"/>
   <polygon class="m-fil4" points="178,1608 178,2534 4157,2534 4157,1608 "/>
   <path class="m-fil5" d="M3989 1189c-1,-5 -1,-11 -1,-16 -1,-1 -2,-2 -3,-4 -32,-33 -67,-64 -101,-95 -72,-64 -145,-128 -207,-203 -4,-5 -8,-9 -11,-14l-3055 0c-63,117 -137,228 -207,342 -21,34 -41,69 -60,105 -9,17 -18,34 -26,51 -5,10 -9,20 -14,30l0 0c-13,38 -27,76 -38,115 -6,23 -11,46 -15,70 -2,8 -3,17 -5,25 0,3 0,6 -1,10l0 3 3823 0c-47,-134 -62,-275 -79,-419z"/>
   <path class="m-fil6" d="M2383 190c-66,-32 -140,-49 -216,-49 -75,0 -149,17 -215,49l-1388 667 3207 0 -1388 -667z"/>
   <path class="m-fil7" d="M2351 2240l-56 -66 -61 71 -499 -398 -499 403 -280 -169 -368 392 -223 -102 -252 193c55,132 166,270 279,388 10,25 20,51 29,77 22,64 43,130 83,182l116 0c862,499 1855,-203 3121,0 -27,-35 95,-73 133,-115 39,-44 34,-93 37,-140l56 -4 132 -483 -189 -168 -142 89 -419 -339 -373 339 -433 -317 -192 167z"/>
   <polygon class="m-fil6" points="1311,2298 1702,1928 1735,2172 1786,2148 2084,2459 2072,2469 1735,2268 1590,2429 1590,2250 1527,2267 1563,2216 1381,2315 1417,2259 "/>
   <polygon class="m-fil6" points="968,2130 1209,2305 1209,2271 1697,2645 1432,2491 1784,2861 1661,2848 1111,2469 1080,2557 1062,2342 "/>
   <polygon class="m-fil6" points="2038,2758 2221,2465 2221,2592 "/>
   <polygon class="m-fil6" points="2905,2427 2555,2130 2631,2337 2599,2408 2653,2406 2767,2551 2879,2450 "/>
   <path class="m-fil7" d="M2167 3993c-1006,0 -1825,-819 -1825,-1826 0,-1006 819,-1825 1825,-1825 1007,0 1826,819 1826,1825 0,1007 -819,1826 -1826,1826zm0 -3921c-1157,0 -2095,938 -2095,2095 0,1158 938,2096 2095,2096 1158,0 2096,-938 2096,-2096 0,-1157 -938,-2095 -2096,-2095z"/>
   <polygon class="m-fil6" points="753,2562 801,2453 735,2496 768,2415 644,2519 786,2628 "/>
   <path class="m-fil6" d="M579 2522c-6,0 -214,-120 -214,-120l100 175 0 73 21 -22 300 109 -207 -215z"/>
   <polygon class="m-fil6" points="2847,2612 3334,2130 3288,2395 3376,2416 3410,2634 3329,2469 3273,2469 3089,2612 3138,2551 3007,2644 3078,2521 2839,2708 2938,2566 "/>
   <polygon class="m-fil6" points="4052,2490 3903,2341 3950,2517 3933,2551 4052,2708 "/>
</svg>
