<svg xmlns="http://www.w3.org/2000/svg" xmlns:xlink="http://www.w3.org/1999/xlink" viewBox="6057 3132 40 40">
  <defs>
    <style>
      .cls-1, .cls-3 {
        fill: #fff;
      }

      .cls-1 {
        stroke: #95989a;
      }

      .cls-2 {
        clip-path: url(#clip-path);
      }
    </style>
    <clipPath id="clip-path">
      <rect id="Rectangle_15" data-name="Rectangle 15" class="cls-1" width="40" height="40" transform="translate(560 661)"/>
    </clipPath>
  </defs>
  <g id="Mask_Group_8" data-name="Mask Group 8" class="cls-2" transform="translate(5497 2471)">
    <g id="Map_pin_free_icon_2" data-name="Map pin free icon 2" transform="translate(560 661)">
      <path id="Path_71" data-name="Path 71" class="cls-3" d="M39.807,10.89l-.006,0v-.014l-4.347,2.585a17.134,17.134,0,0,1-.968,2.475c-.108.219-.219.436-.338.652l.017-.01-.01.021,2.4-1.427,1.214-.714v8.588l-4.816,2.958-2.546,1.557V24.287l.009-2.406-.009.01v-.018c-.7.762-1.386,1.447-2.031,2.046v4.9l-1.82,1.118-3.636-2.975-1.566.357-.341.075V25.411c-.4-.33-.865-.722-1.357-1.164-.224-.206-.45-.412-.662-.623v.012l-.012-.012V27.86l-5.739,1.309-1.624-1.082V18.831l2.356-1.4a18.3,18.3,0,0,1-.9-1.709c-.012-.028-.027-.055-.039-.083h0l-.005-.011L10.6,17.069,3.726,12.979l-3.52-2.1v.008l-.013-.007V33.81L9.587,39.4,10.6,40l1.016-.6L20,34.414,28.375,39.4l1.016.6,1.016-.6L39.8,33.81V18.653Zm-9.4,26.133V28.763l7.363-4.523v8.412l-4.862,2.891Zm-2.031-7v4.64l-.006,2.366-7.357-4.373V28.438l1.648-.376,3.811,3.118,1.257-.772ZM18.981,28.9v3.748l-4.862,2.891-2.5,1.479V29.307l1.423.949,4.884-1.114Zm-9.394-5L9.58,26.728l-3.015-2.01L3.622,26.342l-1.4.765V14.453l7.363,4.377ZM9.581,37.025,2.224,32.652V28.273l4.291-2.368,3.072,2.048v5.991Z"/>
      <path id="Path_72" data-name="Path 72" class="cls-3" d="M16.391,16.024a22.883,22.883,0,0,0,2.994,3.981c.643.693,1.28,1.308,1.862,1.829a25.606,25.606,0,0,0,2.589,2.081A28.3,28.3,0,0,0,28,20.308a21.918,21.918,0,0,0,3.888-5.419A12.573,12.573,0,0,0,33.235,9.4a9.4,9.4,0,1,0-18.8,0,12.238,12.238,0,0,0,1.113,4.958A16.417,16.417,0,0,0,16.391,16.024Zm7.444-2.831a3.72,3.72,0,0,1-.889-.107,3.786,3.786,0,1,1,.889.107Z"/>
    </g>
  </g>
</svg>
