<svg xmlns="http://www.w3.org/2000/svg" viewBox="6014.984 2411.728 1920.091 500.303"><defs><style>.a{fill:#493928;}.a,.b{fill-rule:evenodd;}.b{fill:#ffdc4f;}</style></defs><g transform="translate(6906.885 1527.6)"><path class="a" d="M1091.312,404.368l-26.968-31.274-29.376,33.643-240.3-188.591-240.3,190.961-134.84-80.08L242.3,514.775l-107.39-48.332L13.318,557.9l.016,160.547,1920-.031.075-205.366-91.328-79.779L1773.7,475.446,1571.92,314.812,1392.294,475.446l-208.52-150.209Z" transform="translate(-905.218 665.982)"/><path class="b" d="M154.84,403.037,343.134,227.713l15.892,115.619,24.56-11.373L527.094,479.326l-5.779,4.739L359.026,388.822,289.2,465.111V380.292l-30.339,8.055L276.2,364.181,188.55,411.093l17.337-26.535Z" transform="translate(-469.58 694.797)"/><path class="b" d="M114.329,251.571l116.058,82.923V318.383L465.394,495.6,337.778,422.63,507.291,597.953l-59.233-6.16L183.193,412.205l-14.929,41.7L159.6,352.026Z" transform="translate(-594.247 766.656)"/><path class="b" d="M240.7,429.975l88.128-138.837v60.179Z" transform="translate(-205.342 885.829)"/><path class="b" d="M470.317,392.3,301.767,251.571l36.6,98.086L322.955,383.3l26.005-.948,54.9,68.708L457.8,403.2Z" transform="translate(-17.433 766.656)"/><path class="b" d="M128.553,354.888l23.116-51.65-31.784,20.375,15.892-38.382-59.715,49.28,68.383,51.65Z" transform="translate(-712.009 868.042)"/><path class="b" d="M146.166,340.558c-2.889,0-103.056-56.861-103.056-56.861L91.267,366.62v34.591l10.113-10.424,144.471,51.649Z" transform="translate(-813.415 863.417)"/><path class="b" d="M339.162,479.966l234.525-228.4L551.535,377.14l42.378,9.951,16.373,103.3-39.007-78.186H544.312L455.7,479.966l23.6-28.905-63.086,44.068,34.191-58.283-115.1,88.609,47.676-67.287Z" transform="translate(85.79 766.656)"/><path class="b" d="M532.731,347.1l-71.754-70.6,22.634,83.4L475.424,376l57.307,74.395Z" transform="translate(472.514 841.717)"/></g></svg>